<svg xmlns="http://www.w3.org/2000/svg" version="1.1" xmlns:xlink="http://www.w3.org/1999/xlink" xmlns:svgjs="http://svgjs.dev/svgjs" width="1500" height="1500" viewBox="0 0 1500 1500"><rect width="1500" height="1500" fill="#000000"></rect><g transform="matrix(0.6666666666666666,0,0,0.6666666666666666,249.39393939393938,628.4937153221874)"><svg viewBox="0 0 396 96" data-background-color="#efefef" preserveAspectRatio="xMidYMid meet" height="363" width="1500" xmlns="http://www.w3.org/2000/svg" xmlns:xlink="http://www.w3.org/1999/xlink"><g id="tight-bounds" transform="matrix(1,0,0,1,0.2400000000000091,0.20084020276863157)"><svg viewBox="0 0 395.52 95.59831959446277" height="95.59831959446277" width="395.52"><g><svg viewBox="0 0 395.52 95.59831959446277" height="95.59831959446277" width="395.52"><g><svg viewBox="0 0 395.52 95.59831959446277" height="95.59831959446277" width="395.52"><g id="textblocktransform"><svg viewBox="0 0 395.52 95.59831959446277" height="95.59831959446277" width="395.52" id="textblock"><g><svg viewBox="0 0 395.52 65.30177535441658" height="65.30177535441658" width="395.52"><g transform="matrix(1,0,0,1,0,0)"><svg width="395.52" viewBox="0.7 -37.75 229.23000000000002 37.85" height="65.30177535441658" data-palette-color="#d94e28"><path d="M22.15-12.35Q22.15-9.55 21.08-7.28 20-5 18.18-3.35 16.35-1.7 13.88-0.8 11.4 0.1 8.55 0.1L8.55 0.1Q6.55 0.1 4.55-0.98 2.55-2.05 0.7-4.4L0.7-4.4 4.4-11.65Q4.75-11 5.45-10.33 6.15-9.65 7.03-9.15 7.9-8.65 8.78-8.33 9.65-8 10.35-8L10.35-8Q10.95-8 11.6-8.2 12.25-8.4 12.8-8.8 13.35-9.2 13.68-9.73 14-10.25 14-10.95L14-10.95Q14-12.15 13.23-13.18 12.45-14.2 11.3-15.13 10.15-16.05 8.8-17 7.45-17.95 6.33-19 5.2-20.05 4.4-21.35 3.6-22.65 3.6-24.25L3.6-24.25Q3.6-26.85 5.15-29.1 6.7-31.35 9.03-32.98 11.35-34.6 14.1-35.55 16.85-36.5 19.3-36.5L19.3-36.5Q20.65-36.5 21.85-36.18 23.05-35.85 23.93-35.13 24.8-34.4 25.33-33.3 25.85-32.2 25.85-30.55L25.85-30.55Q25.85-29.85 25.73-29.15 25.6-28.45 25.5-27.65L25.5-27.65 18.25-25.55Q18.35-25.95 18.43-26.35 18.5-26.75 18.5-27.15L18.5-27.15Q18.5-28.65 17.98-29.33 17.45-30 16.6-30L16.6-30Q16.2-30 15.63-29.7 15.05-29.4 14.48-28.93 13.9-28.45 13.5-27.8 13.1-27.15 13.1-26.4L13.1-26.4Q13.1-25.2 13.78-24.4 14.45-23.6 15.45-22.9 16.45-22.2 17.63-21.48 18.8-20.75 19.8-19.6 20.8-18.45 21.48-16.73 22.15-15 22.15-12.35L22.15-12.35ZM28.25-0.85L20-0.3Q22.2-6.95 24.2-13.35L24.2-13.35Q25.05-16.05 25.95-19 26.85-21.95 27.75-24.85 28.65-27.75 29.42-30.45 30.2-33.15 30.8-35.45L30.8-35.45Q33.55-35.45 36-35.75 38.45-36.05 41.3-36.3L41.3-36.3Q41.15-35.2 40.97-33.83 40.8-32.45 40.57-30.95 40.35-29.45 40.1-27.85 39.85-26.25 39.5-23.75 39.15-21.25 38.55-17.5L38.55-17.5 39.2-17.5Q40.65-21.3 41.6-23.83 42.55-26.35 43.15-27.95 43.75-29.55 44.37-31.08 45-32.6 45.57-33.98 46.15-35.35 46.65-36.4L46.65-36.4Q47.9-36.5 49-36.65 50.1-36.8 51.2-36.98 52.3-37.15 53.42-37.33 54.55-37.5 55.9-37.75L55.9-37.75Q55.4-34.85 54.95-31.8 54.5-28.75 54.15-25.73 53.8-22.7 53.47-19.75 53.15-16.8 52.9-14.15L52.9-14.15Q52.3-7.95 51.85-2.05L51.85-2.05 43.15-0.5Q43.15-0.75 43.22-1.85 43.3-2.95 43.42-4.55 43.55-6.15 43.77-8.1 44-10.05 44.22-12 44.45-13.95 44.7-15.78 44.95-17.6 45.2-18.9L45.2-18.9 44.75-18.9Q44.05-16.8 43.2-14.48 42.35-12.15 41.47-9.75 40.6-7.35 39.75-5.05 38.9-2.75 38.25-0.65L38.25-0.65Q36.5-0.6 35.25-0.53 34-0.45 32.35-0.35L32.35-0.35 33.95-18.9 33.2-18.9Q33.1-18.25 32.7-16.73 32.3-15.2 31.77-13.23 31.25-11.25 30.65-9.13 30.05-7 29.52-5.18 29-3.35 28.65-2.18 28.3-1 28.25-0.85L28.25-0.85ZM70.85-1Q69.6-0.8 68.1-0.55 66.6-0.3 65.4-0.1L65.4-0.1Q65.6-1.75 65.8-3.35L65.8-3.35Q65.95-4.75 66.07-6.15 66.2-7.55 66.3-8.55L66.3-8.55 61.95-8.55 59.95-1.35Q58.85-1.2 57.35-1.03 55.85-0.85 54.55-0.7L54.55-0.7Q52.95-0.5 51.4-0.3L51.4-0.3Q53.4-6.95 55.35-13.4L55.35-13.4Q56.15-16.1 57.02-19.05 57.9-22 58.77-24.93 59.65-27.85 60.45-30.55 61.25-33.25 61.85-35.5L61.85-35.5Q65.25-35.75 68.77-36.1 72.3-36.45 75.65-37.05L75.65-37.05Q75.5-35.45 75.32-33.08 75.15-30.7 75-27.9 74.85-25.1 74.7-22.05 74.55-19 74.4-16.05L74.4-16.05Q74.15-9.15 73.85-1.4L73.85-1.4Q72.35-1.15 70.85-1L70.85-1ZM66.25-26.1L63.15-13.55Q63.35-13.55 63.87-13.58 64.4-13.6 64.97-13.63 65.55-13.65 66.05-13.68 66.55-13.7 66.75-13.75L66.75-13.75Q66.75-14.05 66.82-14.78 66.9-15.5 66.97-16.43 67.05-17.35 67.15-18.45 67.25-19.55 67.35-20.6L67.35-20.6Q67.55-23.15 67.85-26.1L67.85-26.1 68.15-30.45 67.4-30.4 66.25-26.1ZM82.39-2.05L74.29 0.05Q75.64-6.6 76.89-12.95L76.89-12.95Q77.34-15.65 77.89-18.57 78.44-21.5 78.92-24.38 79.39-27.25 79.82-29.93 80.24-32.6 80.49-34.8L80.49-34.8Q83.34-35.7 86.64-36.13 89.94-36.55 93.19-36.55L93.19-36.55Q95.14-36.55 96.42-36.1 97.69-35.65 98.42-34.83 99.14-34 99.44-32.9 99.74-31.8 99.74-30.45L99.74-30.45Q99.74-28.45 99.04-26.53 98.34-24.6 97.17-22.88 95.99-21.15 94.47-19.73 92.94-18.3 91.19-17.4L91.19-17.4Q92.09-15.4 93.12-13.03 94.14-10.65 95.04-8.5L95.04-8.5Q96.04-6 97.09-3.5L97.09-3.5 89.34-0.8Q88.34-4 87.54-6.8L87.54-6.8Q87.19-7.95 86.84-9.18 86.49-10.4 86.19-11.5 85.89-12.6 85.69-13.48 85.49-14.35 85.44-14.9L85.44-14.9 84.79-14.7Q84.49-13.1 84.07-10.95 83.64-8.8 83.29-6.8L83.29-6.8Q82.84-4.45 82.39-2.05L82.39-2.05ZM87.64-29.6L86.04-21.65Q86.99-21.75 88.37-22.45 89.74-23.15 90.99-24.13 92.24-25.1 93.14-26.15 94.04-27.2 94.04-28L94.04-28Q94.04-28.55 93.69-28.88 93.34-29.2 92.72-29.38 92.09-29.55 91.34-29.6 90.59-29.65 89.79-29.65L89.79-29.65Q89.24-29.65 88.67-29.63 88.09-29.6 87.64-29.6L87.64-29.6ZM109.79-1.35L100.79 0.05Q101.94-5.45 102.99-10.8L102.99-10.8Q103.44-13.05 103.89-15.5 104.34-17.95 104.77-20.33 105.19-22.7 105.52-24.93 105.84-27.15 106.09-29L106.09-29Q104.94-29.15 103.77-29.1 102.59-29.05 101.44-29.4L101.44-29.4Q101.49-30.2 101.49-31.25 101.49-32.3 101.54-33.35L101.54-33.35Q101.59-34.5 101.64-35.8L101.64-35.8Q102.94-35.7 104.24-35.65 105.54-35.6 106.84-35.6L106.84-35.6Q109.39-35.6 111.77-35.73 114.14-35.85 116.17-36.02 118.19-36.2 120.14-36.45L120.14-36.45 119.59-33.75Q119.34-32.6 119.12-31.4 118.89-30.2 118.69-29.35L118.69-29.35Q117.59-29.05 116.47-28.93 115.34-28.8 114.24-28.6L114.24-28.6Q113.89-26.9 113.49-24.83 113.09-22.75 112.72-20.53 112.34-18.3 111.99-16 111.64-13.7 111.29-11.6L111.29-11.6Q110.49-6.65 109.79-1.35L109.79-1.35ZM122.89-1.65L114.24 0.05Q115.74-6.7 117.09-13.15L117.09-13.15Q117.64-15.85 118.24-18.85 118.84-21.85 119.39-24.75 119.94-27.65 120.44-30.35 120.94-33.05 121.29-35.3L121.29-35.3Q122.74-35.75 124.14-36.08 125.54-36.4 127.01-36.65 128.49-36.9 129.79-36.9L129.79-36.9Q132.04-36.9 133.56-36.15 135.09-35.4 136.04-34.13 136.99-32.85 137.39-31.15 137.79-29.45 137.79-27.5L137.79-27.5Q137.79-24.7 136.76-22.1 135.74-19.5 134.01-17.48 132.29-15.45 130.06-14.25 127.84-13.05 125.44-13.05L125.44-13.05 124.89-13.05Q124.49-11.35 124.14-9.35 123.79-7.35 123.54-5.65L123.54-5.65Q123.19-3.65 122.89-1.65L122.89-1.65ZM128.19-30.85Q127.64-27.55 127.09-24.6 126.54-21.65 125.89-18.3L125.89-18.3Q126.69-18.5 127.56-19.23 128.44-19.95 129.19-21.13 129.94-22.3 130.39-23.85 130.84-25.4 130.84-27.1L130.84-27.1Q130.84-28.95 130.01-29.9 129.19-30.85 128.19-30.85L128.19-30.85ZM141.84-1Q141.39-1 140.06-0.88 138.74-0.75 137.34-0.58 135.94-0.4 134.81-0.25 133.69-0.1 133.59-0.05L133.59-0.05Q134.09-2.2 134.61-4.83 135.14-7.45 135.69-10.33 136.24-13.2 136.74-16.15 137.24-19.1 137.69-21.85L137.69-21.85Q138.74-28.25 139.78-35L139.78-35 147.59-36.25Q146.44-29.55 145.34-23.1L145.34-23.1Q144.89-20.35 144.41-17.4 143.94-14.45 143.46-11.55 142.99-8.65 142.59-5.93 142.19-3.2 141.84-1L141.84-1ZM164.78-10.75Q163.58-8 162.11-5.98 160.63-3.95 159.01-2.58 157.38-1.2 155.73-0.55 154.08 0.1 152.53 0.1L152.53 0.1Q150.98 0.1 149.71-0.6 148.43-1.3 147.48-2.7 146.53-4.1 145.96-6.15 145.38-8.2 145.38-10.95L145.38-10.95Q145.38-15.65 146.68-20.23 147.98-24.8 150.33-28.45 152.68-32.1 155.91-34.33 159.13-36.55 163.03-36.55L163.03-36.55Q164.23-36.55 165.33-36.05 166.43-35.55 167.23-34.65 168.03-33.75 168.51-32.45 168.98-31.15 168.98-29.55L168.98-29.55Q168.98-29.25 168.98-28.93 168.98-28.6 168.93-28.25L168.93-28.25 162.38-26.5Q161.78-27.75 160.98-27.75L160.98-27.75Q160.18-27.75 159.31-26.83 158.43-25.9 157.58-24.43 156.73-22.95 155.93-21.13 155.13-19.3 154.53-17.45 153.93-15.6 153.56-13.93 153.18-12.25 153.18-11.2L153.18-11.2Q153.18-9.6 153.61-8.95 154.03-8.3 154.73-8.3L154.73-8.3Q155.28-8.3 155.98-8.72 156.68-9.15 157.28-9.83 157.88-10.5 158.38-11.35 158.88-12.2 159.08-13.05L159.08-13.05 164.78-10.75ZM172.58-1.15L164.48 0.05Q165.98-6.95 167.28-13.55L167.28-13.55Q167.78-16.4 168.33-19.45 168.88-22.5 169.35-25.5 169.83-28.5 170.2-31.33 170.58-34.15 170.78-36.45L170.78-36.45Q171.93-36.35 173.38-36.27 174.83-36.2 176.08-36.1L176.08-36.1Q177.58-36 179.08-36L179.08-36Q179.03-35.8 178.93-35.25 178.83-34.7 178.68-33.93 178.53-33.15 178.35-32.2 178.18-31.25 177.98-30.3L177.98-30.3Q177.58-28.1 177.08-25.35L177.08-25.35 177.38-25.4Q177.88-26.2 178.81-27.63 179.73-29.05 180.73-30.65 181.73-32.25 182.68-33.73 183.63-35.2 184.28-36.25L184.28-36.25Q186.78-36.45 189.28-36.7 191.78-36.95 194.28-37.35L194.28-37.35Q191.93-34.2 189.73-31.15L189.73-31.15Q188.78-29.85 187.81-28.45 186.83-27.05 185.88-25.7 184.93-24.35 184.1-23.1 183.28-21.85 182.63-20.8L182.63-20.8Q183.73-15.75 185.23-11.05 186.73-6.35 188.28-1.45L188.28-1.45Q187.13-1.5 185.93-1.53 184.73-1.55 183.58-1.55L183.58-1.55Q182.13-1.55 180.78-1.53 179.43-1.5 177.98-1.45L177.98-1.45Q177.53-4.7 177-8.28 176.48-11.85 176.03-15.1L176.03-15.1 175.13-14.05Q174.78-12.55 174.35-10.35 173.93-8.15 173.53-6.1L173.53-6.1Q173.08-3.7 172.58-1.15L172.58-1.15ZM203.78-2.45L187.63 0.05 194.18-35.5 209.98-36.85Q209.63-35.75 209.38-34.6L209.38-34.6Q209.13-33.65 208.9-32.63 208.68-31.6 208.53-30.8L208.53-30.8Q208.03-30.75 207.1-30.73 206.18-30.7 205.13-30.68 204.08-30.65 203-30.65 201.93-30.65 201.13-30.65L201.13-30.65 199.38-21.7Q200.93-21.8 202.28-21.85L202.28-21.85Q203.38-21.9 204.53-21.9 205.68-21.9 206.23-21.95L206.23-21.95Q206.03-20.55 205.85-19.2 205.68-17.85 205.43-16.45L205.43-16.45Q204.93-16.4 203.8-16.38 202.68-16.35 201.53-16.3L201.53-16.3Q200.23-16.25 198.68-16.2L198.68-16.2 196.98-7 204.28-8.15 203.78-2.45ZM212.58-2.05L204.47 0.05Q205.83-6.6 207.08-12.95L207.08-12.95Q207.53-15.65 208.08-18.57 208.63-21.5 209.1-24.38 209.58-27.25 210-29.93 210.43-32.6 210.68-34.8L210.68-34.8Q213.53-35.7 216.83-36.13 220.13-36.55 223.38-36.55L223.38-36.55Q225.33-36.55 226.6-36.1 227.88-35.65 228.6-34.83 229.33-34 229.63-32.9 229.93-31.8 229.93-30.45L229.93-30.45Q229.93-28.45 229.23-26.53 228.53-24.6 227.35-22.88 226.18-21.15 224.65-19.73 223.13-18.3 221.38-17.4L221.38-17.4Q222.28-15.4 223.3-13.03 224.33-10.65 225.23-8.5L225.23-8.5Q226.23-6 227.28-3.5L227.28-3.5 219.53-0.8Q218.53-4 217.72-6.8L217.72-6.8Q217.38-7.95 217.03-9.18 216.68-10.4 216.38-11.5 216.08-12.6 215.88-13.48 215.68-14.35 215.63-14.9L215.63-14.9 214.97-14.7Q214.68-13.1 214.25-10.95 213.83-8.8 213.47-6.8L213.47-6.8Q213.03-4.45 212.58-2.05L212.58-2.05ZM217.83-29.6L216.22-21.65Q217.18-21.75 218.55-22.45 219.93-23.15 221.18-24.13 222.43-25.1 223.33-26.15 224.23-27.2 224.23-28L224.23-28Q224.23-28.55 223.88-28.88 223.53-29.2 222.9-29.38 222.28-29.55 221.53-29.6 220.78-29.65 219.97-29.65L219.97-29.65Q219.43-29.65 218.85-29.63 218.28-29.6 217.83-29.6L217.83-29.6Z" opacity="1" transform="matrix(1,0,0,1,0,0)" fill="#ffffff" class="wordmark-text-0" data-fill-palette-color="primary" id="text-0"></path></svg></g></svg></g><g transform="matrix(1,0,0,1,0,80.71795727298583)"><svg viewBox="0 0 232.20979199999996 14.88036232147694" height="14.88036232147694" width="232.20979199999996"><g transform="matrix(1,0,0,1,0,0)"><svg width="232.20979199999996" viewBox="2.3 -35.5 701.37 44.95" height="14.88036232147694" data-palette-color="#d94e28"><path d="M6.85 0.1L6.85 0.1Q2.3 0.1 2.3-0.9L2.3-0.9 2.3-33.3Q2.3-35 3.85-35L3.85-35 12.65-35Q20.05-35 23.33-31.95 26.6-28.9 26.6-23.1L26.6-23.1Q26.6-18.3 23.5-14.3L23.5-14.3Q21.95-12.3 18.95-11.1 15.95-9.9 11.95-9.9L11.95-9.9 11.95-0.95Q11.95-0.35 10.08-0.13 8.2 0.1 6.85 0.1ZM13-26.3L11.95-26.3 11.95-18.4 12.6-18.4Q14.35-18.4 15.55-19.5 16.75-20.6 16.75-22.6 16.75-24.6 15.93-25.45 15.1-26.3 13-26.3L13-26.3ZM39.9-24.85L39.9-0.3Q39.9 0.1 35.32 0.1 30.75 0.1 30.75-0.25L30.75-0.25 30.75-24.8Q30.75-25.15 35.32-25.15 39.9-25.15 39.9-24.85L39.9-24.85ZM39.9-35.15L39.9-27.8Q39.9-27.45 35.32-27.45 30.75-27.45 30.75-27.75L30.75-27.75 30.75-34.95Q30.75-35.45 35.32-35.45 39.9-35.45 39.9-35.15L39.9-35.15ZM52.6-12.4L52.6-12.4Q52.6-7.5 56.3-7.5L56.3-7.5Q58.7-7.5 60.3-8.45L60.3-8.45Q61.05-8.45 61.52-5.88 62-3.3 62-2.38 62-1.45 61.75-1.15L61.75-1.15Q59.09 0.5 54.5 0.5 49.9 0.5 46.67-2.93 43.45-6.35 43.45-12.28 43.45-18.2 46.62-21.85 49.8-25.5 55.07-25.5 60.34-25.5 62.4-22.95L62.4-22.95Q62.85-22.4 62.85-21.33 62.85-20.25 62.45-18.7L62.45-18.7Q61.55-15.5 60.09-15L60.09-15Q59.9-14.95 59.52-14.95 59.15-14.95 58.59-15.55L58.59-15.55Q56.65-17.5 55.47-17.5 54.3-17.5 53.45-16.3 52.6-15.1 52.6-12.4ZM65.59-0.3L65.59-34.6Q65.59-35.4 70.14-35.4L70.14-35.4Q74.39-35.25 74.39-34.75L74.39-34.75 74.39-15.55 79.34-24.7Q79.69-25.45 83.59-25.45 87.49-25.45 88.59-24.95L88.59-24.95 82.09-14.35 89.59-0.3Q89.69-0.1 87.72 0.03 85.74 0.15 84.44 0.15L84.44 0.15Q79.64 0.15 79.29-0.3L79.29-0.3 74.34-11.4 74.34-0.35Q74.34 0.3 69.97 0.3 65.59 0.3 65.59-0.3L65.59-0.3ZM113.04-18L113.04-0.3Q113.04 0.3 108.84 0.3L108.84 0.3Q103.84 0.1 103.84-0.35L103.84-0.35 103.84-18.05 101.29-18.05Q100.29-18.05 100.29-21.5L100.29-21.5Q100.29-22.4 100.46-23.7 100.64-25 101.19-25L101.19-25 103.84-25 103.84-29.4Q103.84-30.4 108.06-30.4 112.29-30.4 112.29-29.6L112.29-29.6 112.29-26.4 112.34-25 116.59-25Q117.44-25 117.44-21.5 117.44-18 116.59-18L116.59-18 113.04-18ZM128.29-16.55L128.29-0.35Q128.29 0.1 124.11 0.1 119.94 0.1 119.94-0.6L119.94-0.6 119.94-34.85Q119.94-35.2 121.49-35.35 123.04-35.5 124.09-35.5L124.09-35.5Q128.29-35.5 128.29-34.6L128.29-34.6 128.29-24.6Q131.09-25.45 132.54-25.45L132.54-25.45Q136.34-25.45 138.54-23.43 140.74-21.4 140.74-15.9L140.74-15.9 140.74-0.4Q140.74 0.05 136.84 0.05L136.84 0.05Q132.44-0.1 132.44-0.45L132.44-0.45 132.44-15.15Q132.44-17.6 130.84-17.6L130.84-17.6Q129.74-17.6 128.29-16.55L128.29-16.55ZM163.88-1.35L163.88-1.35Q160.73 0.5 155.78 0.5 150.83 0.5 147.43-2.88 144.03-6.25 144.03-12.23 144.03-18.2 147.31-21.85 150.58-25.5 155.58-25.5 160.58-25.5 163.31-22.95 166.03-20.4 166.03-16.75L166.03-16.75Q166.03-8.65 156.73-8.65L156.73-8.65 153.28-8.65Q153.28-7.15 154.11-6.58 154.93-6 156.53-6L156.53-6Q160.03-6 163.18-7.6L163.18-7.6Q163.23-7.65 163.63-6.9L163.63-6.9Q164.83-4.75 164.83-3.28 164.83-1.8 163.88-1.35ZM157.63-15.8L157.63-15.8Q157.63-17.9 155.58-17.9L155.58-17.9Q154.63-17.9 153.96-17.32 153.28-16.75 153.28-15.65L153.28-15.65 153.28-14.1 155.98-14.1Q157.63-14.1 157.63-15.8ZM189.43 0L189.43 9.1Q189.43 9.45 185.15 9.45 180.88 9.45 180.88 9.1L180.88 9.1 180.88-16.65 179.18-16.65Q177.98-16.65 177.53-18.85L177.53-18.85Q177.38-19.55 177.38-20.65 177.38-21.75 178.08-23.25L178.08-23.25Q179.08-25.45 181.28-25.45L181.28-25.45Q182.73-25.45 183.95-24.78 185.18-24.1 185.65-23.53 186.13-22.95 186.13-22.85L186.13-22.85Q189.48-25.45 193.38-25.45 197.28-25.45 200.08-22.43 202.88-19.4 202.88-13.08 202.88-6.75 200.08-3.28 197.28 0.2 192.98 0.2L192.98 0.2Q191.03 0.2 189.43 0L189.43 0ZM191.48-16.7L191.48-16.7Q190.63-16.7 189.83-16.15L189.83-16.15 189.83-7.3Q190.68-7.2 191.2-7.2 191.73-7.2 192.03-7.2L192.03-7.2Q194.08-7.4 194.08-12.45L194.08-12.45Q194.08-16.7 191.48-16.7ZM225.33-1.35L225.33-1.35Q222.18 0.5 217.23 0.5 212.28 0.5 208.88-2.88 205.48-6.25 205.48-12.23 205.48-18.2 208.75-21.85 212.03-25.5 217.03-25.5 222.03-25.5 224.75-22.95 227.48-20.4 227.48-16.75L227.48-16.75Q227.48-8.65 218.18-8.65L218.18-8.65 214.73-8.65Q214.73-7.15 215.55-6.58 216.38-6 217.98-6L217.98-6Q221.48-6 224.63-7.6L224.63-7.6Q224.68-7.65 225.08-6.9L225.08-6.9Q226.28-4.75 226.28-3.28 226.28-1.8 225.33-1.35ZM219.08-15.8L219.08-15.8Q219.08-17.9 217.03-17.9L217.03-17.9Q216.08-17.9 215.4-17.32 214.73-16.75 214.73-15.65L214.73-15.65 214.73-14.1 217.43-14.1Q219.08-14.1 219.08-15.8ZM241.67-14L241.67-0.05Q241.67 0.3 237.12 0.3L237.12 0.3Q232.57 0.2 232.57-0.1L232.57-0.1 232.57-16.7 231.22-16.7Q230.42-16.7 229.95-17.68 229.47-18.65 229.47-20.1L229.47-20.1Q229.47-25.5 232.67-25.5L232.67-25.5Q234.92-25.5 236.42-24.13 237.92-22.75 237.92-21L237.92-21Q238.97-23.05 240.75-24.28 242.52-25.5 244.37-25.5L244.37-25.5Q247.27-25.5 247.87-24L247.87-24Q248.02-23.6 248.02-22.83 248.02-22.05 247.55-20.05 247.07-18.05 246.57-17.15 246.07-16.25 245.97-16.25 245.87-16.25 245.05-16.63 244.22-17 243.57-17L243.57-17Q241.67-17 241.67-14L241.67-14ZM252.47-0.6L252.47-18.35 250.02-18.35Q249.27-18.35 249.27-21.68 249.27-25 250.02-25L250.02-25 252.47-25 252.47-26.1Q252.47-31.4 254.7-33.43 256.92-35.45 260.92-35.45 264.92-35.45 267.97-34L267.97-34Q268.37-33.85 268.37-32.93 268.37-32 267.52-29.95 266.67-27.9 266.07-27.6L266.07-27.6Q264.37-28.65 262.57-28.65L262.57-28.65Q260.62-28.65 260.62-26.05L260.62-26.05 260.62-25 264.77-25Q265.67-25 265.67-21.8L265.67-21.8Q265.67-18.3 264.52-18.3L264.52-18.3 261.32-18.3 261.32-0.6Q261.32 0 256.9 0 252.47 0 252.47-0.6L252.47-0.6ZM286.92-1.35L286.92-1.35Q283.77 0.5 278.82 0.5 273.87 0.5 270.47-2.88 267.07-6.25 267.07-12.23 267.07-18.2 270.34-21.85 273.62-25.5 278.62-25.5 283.62-25.5 286.34-22.95 289.07-20.4 289.07-16.75L289.07-16.75Q289.07-8.65 279.77-8.65L279.77-8.65 276.32-8.65Q276.32-7.15 277.14-6.58 277.97-6 279.57-6L279.57-6Q283.07-6 286.22-7.6L286.22-7.6Q286.27-7.65 286.67-6.9L286.67-6.9Q287.87-4.75 287.87-3.28 287.87-1.8 286.92-1.35ZM280.67-15.8L280.67-15.8Q280.67-17.9 278.62-17.9L278.62-17.9Q277.67-17.9 276.99-17.32 276.32-16.75 276.32-15.65L276.32-15.65 276.32-14.1 279.02-14.1Q280.67-14.1 280.67-15.8ZM300.52-12.4L300.52-12.4Q300.52-7.5 304.22-7.5L304.22-7.5Q306.62-7.5 308.22-8.45L308.22-8.45Q308.97-8.45 309.44-5.88 309.92-3.3 309.92-2.38 309.92-1.45 309.67-1.15L309.67-1.15Q307.02 0.5 302.42 0.5 297.82 0.5 294.59-2.93 291.37-6.35 291.37-12.28 291.37-18.2 294.54-21.85 297.72-25.5 302.99-25.5 308.27-25.5 310.32-22.95L310.32-22.95Q310.77-22.4 310.77-21.33 310.77-20.25 310.37-18.7L310.37-18.7Q309.47-15.5 308.02-15L308.02-15Q307.82-14.95 307.44-14.95 307.07-14.95 306.52-15.55L306.52-15.55Q304.57-17.5 303.39-17.5 302.22-17.5 301.37-16.3 300.52-15.1 300.52-12.4ZM325.01-18L325.01-0.3Q325.01 0.3 320.81 0.3L320.81 0.3Q315.81 0.1 315.81-0.35L315.81-0.35 315.81-18.05 313.26-18.05Q312.26-18.05 312.26-21.5L312.26-21.5Q312.26-22.4 312.44-23.7 312.61-25 313.16-25L313.16-25 315.81-25 315.81-29.4Q315.81-30.4 320.04-30.4 324.26-30.4 324.26-29.6L324.26-29.6 324.26-26.4 324.31-25 328.56-25Q329.41-25 329.41-21.5 329.41-18 328.56-18L328.56-18 325.01-18ZM343.26-0.6L343.26-18.35 340.81-18.35Q340.06-18.35 340.06-21.68 340.06-25 340.81-25L340.81-25 343.26-25 343.26-26.1Q343.26-31.4 345.48-33.43 347.71-35.45 351.71-35.45 355.71-35.45 358.76-34L358.76-34Q359.16-33.85 359.16-32.93 359.16-32 358.31-29.95 357.46-27.9 356.86-27.6L356.86-27.6Q355.16-28.65 353.36-28.65L353.36-28.65Q351.41-28.65 351.41-26.05L351.41-26.05 351.41-25 355.56-25Q356.46-25 356.46-21.8L356.46-21.8Q356.46-18.3 355.31-18.3L355.31-18.3 352.11-18.3 352.11-0.6Q352.11 0 347.68 0 343.26 0 343.26-0.6L343.26-0.6ZM371.01-14L371.01-0.05Q371.01 0.3 366.46 0.3L366.46 0.3Q361.91 0.2 361.91-0.1L361.91-0.1 361.91-16.7 360.56-16.7Q359.76-16.7 359.28-17.68 358.81-18.65 358.81-20.1L358.81-20.1Q358.81-25.5 362.01-25.5L362.01-25.5Q364.26-25.5 365.76-24.13 367.26-22.75 367.26-21L367.26-21Q368.31-23.05 370.08-24.28 371.86-25.5 373.71-25.5L373.71-25.5Q376.61-25.5 377.21-24L377.21-24Q377.36-23.6 377.36-22.83 377.36-22.05 376.88-20.05 376.41-18.05 375.91-17.15 375.41-16.25 375.31-16.25 375.21-16.25 374.38-16.63 373.56-17 372.91-17L372.91-17Q371.01-17 371.01-14L371.01-14ZM382.03-2.95Q378.9-6.4 378.9-12.5 378.9-18.6 382.03-22.05 385.15-25.5 390.45-25.5 395.75-25.5 398.85-22.05 401.95-18.6 401.95-12.5 401.95-6.4 398.85-2.95 395.75 0.5 390.45 0.5 385.15 0.5 382.03-2.95ZM390.48-17.15Q387.65-17.15 387.65-12.55 387.65-7.95 390.48-7.95 393.3-7.95 393.3-12.55 393.3-17.15 390.48-17.15ZM428.15-16.3L428.15-0.25Q428.15 0.1 423.88 0.1 419.6 0.1 419.6-0.35L419.6-0.35 419.6-14.9Q419.6-17.4 417.95-17.4L417.95-17.4Q417.1-17.4 415.7-16.3L415.7-16.3 415.7-0.3Q415.7 0.2 411.43 0.2 407.15 0.2 407.15-0.35L407.15-0.35 407.15-16.7 405.9-16.7Q404.25-16.7 404.25-20.15L404.25-20.15Q404.25-21.7 404.85-23.3L404.85-23.3Q405.65-25.5 407.45-25.5 409.25-25.5 410.93-24.55 412.6-23.6 412.95-22.75L412.95-22.75Q416.05-25.5 419.83-25.5 423.6-25.5 425.9-23.15L425.9-23.15Q428.6-25.5 432.4-25.5L432.4-25.5Q440.65-25.5 440.65-15.45L440.65-15.45 440.65-0.25Q440.65 0.1 436.38 0.1 432.1 0.1 432.1-0.35L432.1-0.35 432.1-14.9Q432.1-17.4 430.45-17.4L430.45-17.4Q429.55-17.4 428.15-16.3L428.15-16.3ZM465.8-18L465.8-0.3Q465.8 0.3 461.6 0.3L461.6 0.3Q456.6 0.1 456.6-0.35L456.6-0.35 456.6-18.05 454.05-18.05Q453.05-18.05 453.05-21.5L453.05-21.5Q453.05-22.4 453.22-23.7 453.4-25 453.95-25L453.95-25 456.6-25 456.6-29.4Q456.6-30.4 460.82-30.4 465.05-30.4 465.05-29.6L465.05-29.6 465.05-26.4 465.1-25 469.35-25Q470.2-25 470.2-21.5 470.2-18 469.35-18L469.35-18 465.8-18ZM481.04-16.55L481.04-0.35Q481.04 0.1 476.87 0.1 472.69 0.1 472.69-0.6L472.69-0.6 472.69-34.85Q472.69-35.2 474.24-35.35 475.79-35.5 476.84-35.5L476.84-35.5Q481.04-35.5 481.04-34.6L481.04-34.6 481.04-24.6Q483.84-25.45 485.29-25.45L485.29-25.45Q489.09-25.45 491.29-23.43 493.49-21.4 493.49-15.9L493.49-15.9 493.49-0.4Q493.49 0.05 489.59 0.05L489.59 0.05Q485.19-0.1 485.19-0.45L485.19-0.45 485.19-15.15Q485.19-17.6 483.59-17.6L483.59-17.6Q482.49-17.6 481.04-16.55L481.04-16.55ZM516.64-1.35L516.64-1.35Q513.49 0.5 508.54 0.5 503.59 0.5 500.19-2.88 496.79-6.25 496.79-12.23 496.79-18.2 500.07-21.85 503.34-25.5 508.34-25.5 513.34-25.5 516.07-22.95 518.79-20.4 518.79-16.75L518.79-16.75Q518.79-8.65 509.49-8.65L509.49-8.65 506.04-8.65Q506.04-7.15 506.87-6.58 507.69-6 509.29-6L509.29-6Q512.79-6 515.94-7.6L515.94-7.6Q515.99-7.65 516.39-6.9L516.39-6.9Q517.59-4.75 517.59-3.28 517.59-1.8 516.64-1.35ZM510.39-15.8L510.39-15.8Q510.39-17.9 508.34-17.9L508.34-17.9Q507.39-17.9 506.72-17.32 506.04-16.75 506.04-15.65L506.04-15.65 506.04-14.1 508.74-14.1Q510.39-14.1 510.39-15.8ZM542.18 0L542.18 9.1Q542.18 9.45 537.91 9.45 533.63 9.45 533.63 9.1L533.63 9.1 533.63-16.65 531.93-16.65Q530.73-16.65 530.28-18.85L530.28-18.85Q530.13-19.55 530.13-20.65 530.13-21.75 530.83-23.25L530.83-23.25Q531.83-25.45 534.03-25.45L534.03-25.45Q535.48-25.45 536.71-24.78 537.93-24.1 538.41-23.53 538.88-22.95 538.88-22.85L538.88-22.85Q542.23-25.45 546.13-25.45 550.03-25.45 552.83-22.43 555.63-19.4 555.63-13.08 555.63-6.75 552.83-3.28 550.03 0.2 545.73 0.2L545.73 0.2Q543.78 0.2 542.18 0L542.18 0ZM544.23-16.7L544.23-16.7Q543.38-16.7 542.58-16.15L542.58-16.15 542.58-7.3Q543.43-7.2 543.96-7.2 544.48-7.2 544.78-7.2L544.78-7.2Q546.83-7.4 546.83-12.45L546.83-12.45Q546.83-16.7 544.23-16.7ZM578.08-1.35L578.08-1.35Q574.93 0.5 569.98 0.5 565.03 0.5 561.63-2.88 558.23-6.25 558.23-12.23 558.23-18.2 561.51-21.85 564.78-25.5 569.78-25.5 574.78-25.5 577.51-22.95 580.23-20.4 580.23-16.75L580.23-16.75Q580.23-8.65 570.93-8.65L570.93-8.65 567.48-8.65Q567.48-7.15 568.31-6.58 569.13-6 570.73-6L570.73-6Q574.23-6 577.38-7.6L577.38-7.6Q577.43-7.65 577.83-6.9L577.83-6.9Q579.03-4.75 579.03-3.28 579.03-1.8 578.08-1.35ZM571.83-15.8L571.83-15.8Q571.83-17.9 569.78-17.9L569.78-17.9Q568.83-17.9 568.16-17.32 567.48-16.75 567.48-15.65L567.48-15.65 567.48-14.1 570.18-14.1Q571.83-14.1 571.83-15.8ZM594.43-14L594.43-0.05Q594.43 0.3 589.88 0.3L589.88 0.3Q585.33 0.2 585.33-0.1L585.33-0.1 585.33-16.7 583.98-16.7Q583.18-16.7 582.7-17.68 582.23-18.65 582.23-20.1L582.23-20.1Q582.23-25.5 585.43-25.5L585.43-25.5Q587.68-25.5 589.18-24.13 590.68-22.75 590.68-21L590.68-21Q591.73-23.05 593.5-24.28 595.28-25.5 597.13-25.5L597.13-25.5Q600.03-25.5 600.63-24L600.63-24Q600.78-23.6 600.78-22.83 600.78-22.05 600.3-20.05 599.83-18.05 599.33-17.15 598.83-16.25 598.73-16.25 598.63-16.25 597.8-16.63 596.98-17 596.33-17L596.33-17Q594.43-17 594.43-14L594.43-14ZM605.23-0.6L605.23-18.35 602.78-18.35Q602.03-18.35 602.03-21.68 602.03-25 602.78-25L602.78-25 605.23-25 605.23-26.1Q605.23-31.4 607.45-33.43 609.68-35.45 613.68-35.45 617.68-35.45 620.73-34L620.73-34Q621.13-33.85 621.13-32.93 621.13-32 620.28-29.95 619.43-27.9 618.83-27.6L618.83-27.6Q617.13-28.65 615.33-28.65L615.33-28.65Q613.38-28.65 613.38-26.05L613.38-26.05 613.38-25 617.53-25Q618.43-25 618.43-21.8L618.43-21.8Q618.43-18.3 617.28-18.3L617.28-18.3 614.08-18.3 614.08-0.6Q614.08 0 609.65 0 605.23 0 605.23-0.6L605.23-0.6ZM639.67-1.35L639.67-1.35Q636.52 0.5 631.57 0.5 626.62 0.5 623.22-2.88 619.82-6.25 619.82-12.23 619.82-18.2 623.1-21.85 626.37-25.5 631.37-25.5 636.37-25.5 639.1-22.95 641.82-20.4 641.82-16.75L641.82-16.75Q641.82-8.65 632.52-8.65L632.52-8.65 629.07-8.65Q629.07-7.15 629.9-6.58 630.72-6 632.32-6L632.32-6Q635.82-6 638.97-7.6L638.97-7.6Q639.02-7.65 639.42-6.9L639.42-6.9Q640.62-4.75 640.62-3.28 640.62-1.8 639.67-1.35ZM633.42-15.8L633.42-15.8Q633.42-17.9 631.37-17.9L631.37-17.9Q630.42-17.9 629.75-17.32 629.07-16.75 629.07-15.65L629.07-15.65 629.07-14.1 631.77-14.1Q633.42-14.1 633.42-15.8ZM653.27-12.4L653.27-12.4Q653.27-7.5 656.97-7.5L656.97-7.5Q659.37-7.5 660.97-8.45L660.97-8.45Q661.72-8.45 662.2-5.88 662.67-3.3 662.67-2.38 662.67-1.45 662.42-1.15L662.42-1.15Q659.77 0.5 655.17 0.5 650.57 0.5 647.35-2.93 644.12-6.35 644.12-12.28 644.12-18.2 647.3-21.85 650.47-25.5 655.75-25.5 661.02-25.5 663.07-22.95L663.07-22.95Q663.52-22.4 663.52-21.33 663.52-20.25 663.12-18.7L663.12-18.7Q662.22-15.5 660.77-15L660.77-15Q660.57-14.95 660.2-14.95 659.82-14.95 659.27-15.55L659.27-15.55Q657.32-17.5 656.15-17.5 654.97-17.5 654.12-16.3 653.27-15.1 653.27-12.4ZM677.77-18L677.77-0.3Q677.77 0.3 673.57 0.3L673.57 0.3Q668.57 0.1 668.57-0.35L668.57-0.35 668.57-18.05 666.02-18.05Q665.02-18.05 665.02-21.5L665.02-21.5Q665.02-22.4 665.19-23.7 665.37-25 665.92-25L665.92-25 668.57-25 668.57-29.4Q668.57-30.4 672.79-30.4 677.02-30.4 677.02-29.6L677.02-29.6 677.02-26.4 677.07-25 681.32-25Q682.17-25 682.17-21.5 682.17-18 681.32-18L681.32-18 677.77-18ZM685.72-9L685.72-9Q689.77-6.55 692.12-6.55L692.12-6.55Q693.62-6.55 693.62-7.6L693.62-7.6Q693.62-8.35 691.02-9.55L691.02-9.55Q684.77-12.1 684.77-17.9L684.77-17.9Q684.77-21.6 687.47-23.55 690.17-25.5 693.94-25.5 697.72-25.5 700.34-24.7 702.97-23.9 702.97-22.6L702.97-22.6Q702.97-21.5 701.89-19.7 700.82-17.9 700.42-17.75L700.42-17.75Q698.27-18.95 695.77-18.95L695.77-18.95Q694.42-18.95 694.42-18L694.42-18Q694.42-17.4 694.94-16.98 695.47-16.55 696.87-15.93 698.27-15.3 699.19-14.8 700.12-14.3 701.27-13.4L701.27-13.4Q703.67-11.5 703.67-8.45L703.67-8.45Q703.67-4.45 701.02-1.98 698.37 0.5 693.02 0.5L693.02 0.5Q689.47 0.5 686.57-0.7 683.67-1.9 683.67-4L683.67-4Q683.67-5.4 684.34-6.95 685.02-8.5 685.72-9Z" opacity="1" transform="matrix(1,0,0,1,0,0)" fill="#ffffff" class="slogan-text-1" data-fill-palette-color="secondary" id="text-1"></path></svg></g></svg></g></svg></g></svg></g></svg></g><defs></defs></svg><rect width="395.52" height="95.59831959446277" fill="none" stroke="none" visibility="hidden"></rect></g></svg></g></svg>